<?xml version="1.0" encoding="utf-8"?><svg xml:space="preserve" viewBox="0 0 128 128" y="0px" x="0px" xmlns:xlink="http://www.w3.org/1999/xlink" xmlns="http://www.w3.org/2000/svg" id="圖層_1" version="1.1" width="216px" height="216px" style="width:100%;height:100%;background-size:initial;background-repeat-y:initial;background-repeat-x:initial;background-position-y:initial;background-position-x:initial;background-origin:initial;background-image:initial;background-color:rgb(255, 255, 255);background-clip:initial;background-attachment:initial;animation-play-state:paused" ><g class="ldl-scale" style="transform-origin:50% 50%;transform:rotate(0deg) scale(0.81, 0.81);animation-play-state:paused" ><circle r="51.2" cy="64" cx="64" fill="#A0C8D7" style="fill:rgb(160, 200, 215);animation-play-state:paused" ></circle>
<path d="z" fill="none" style="animation-play-state:paused" ></path>
<path d="z" fill="none" style="animation-play-state:paused" ></path>
<g style="animation-play-state:paused" ><path d="M107.11,119.58H20.89l6.12-33.94c1.24-6.87,6.66-12.22,13.55-13.36L64,68.4l23.44,3.88 c6.89,1.14,12.31,6.49,13.55,13.36C100.98,85.64,107.11,119.58,107.11,119.58z" fill="#E0E0E0" style="fill:rgb(224, 224, 224);animation-play-state:paused" ></path>
<g style="animation-play-state:paused" ><path d="M70.85,83.33L64,89.12l-6.85-5.79V72.06h13.71V83.33z" fill="#C33736" style="fill:rgb(195, 55, 54);animation-play-state:paused" ></path>
<path d="M71.34,119.58H56.59l4.46-33.82h5.82L71.34,119.58z" fill="#C33736" style="fill:rgb(195, 55, 54);animation-play-state:paused" ></path></g>
<path d="M55.47,70.23l-5.93-4.77l-5.95,6.33l13.1,15.2l5.48-14.01L55.47,70.23z" fill="#FFFFFF" style="fill:rgb(255, 255, 255);animation-play-state:paused" ></path>
<path d="M72.53,70.23l5.93-4.77l5.95,6.33l-13.1,15.2l-5.48-14.01L72.53,70.23z" fill="#FFFFFF" style="fill:rgb(255, 255, 255);animation-play-state:paused" ></path>
<g style="animation-play-state:paused" ><path d="M84.41,46.01c0,13.8-9.14,28.64-20.41,28.64S43.59,59.81,43.59,46.01S52.73,24.69,64,24.69 S84.41,32.21,84.41,46.01z" fill="#F4E6C8" style="fill:rgb(244, 230, 200);animation-play-state:paused" ></path>
<path d="M64,24.69c-11.27,0-20.41,7.53-20.41,21.32c0,0.75,0.03,1.5,0.08,2.24c9.1-0.41,17.22-3.8,22.93-9.01 c2.82,5.45,7.66,9.05,13.16,9.05c1.58,0,3.14-0.3,4.61-0.88c0.02-0.47,0.03-0.94,0.03-1.41C84.41,32.21,75.27,24.69,64,24.69z" fill="#323232" style="fill:rgb(50, 50, 50);animation-play-state:paused" ></path></g></g>
<metadata xmlns:d="https://loading.io/stock/" style="animation-play-state:paused" ><d:name style="animation-play-state:paused" >user</d:name>


<d:tags style="animation-play-state:paused" >user,avatar,man,person,member,crew,staff,owner,account</d:tags>


<d:license style="animation-play-state:paused" >by</d:license>


<d:slug style="animation-play-state:paused" >q37o4k</d:slug></metadata></g><!-- generated by https://loading.io/ --></svg>